<?xml version="1.0" encoding="UTF-8"?>
<svg width="32px" height="31px" viewBox="0 0 32 31" version="1.1" xmlns="http://www.w3.org/2000/svg" xmlns:xlink="http://www.w3.org/1999/xlink">
    <!-- Generator: Sketch 52.4 (67378) - http://www.bohemiancoding.com/sketch -->
    <title>hazfal-logo-original</title>
    <desc>Created with Sketch.</desc>
    <g id="Welcome" stroke="none" stroke-width="1" fill="none" fill-rule="evenodd">
        <g id="posts" transform="translate(-704.000000, -21.000000)" fill="#37BCA5" fill-rule="nonzero">
            <g id="nav">
                <g id="hazfal-logo-original" transform="translate(704.000000, 21.000000)">
                    <path d="M32,30.1022525 C28.9675692,30.0391576 27.7813974,28.2422139 28.6176734,24.2975188 C30.0481333,17.6234625 29.9069835,10.7000141 28.2057392,4.09199792 L27.6548394,1.9947224 L25.5951687,1.4344394 C18.528315,-0.478146468 11.0925556,-0.478146468 4.02570194,1.4344394 L1.96354975,1.98210341 L1.41264988,4.07937894 C-0.470883294,11.2670572 -0.470883294,18.8310703 1.41264988,26.0187485 L1.96354975,28.1135003 L4.02570194,28.6737833 C10.5140872,30.4311002 17.322745,30.5765173 23.8779493,29.0977812 C25.8358772,31.1975805 28.7963436,31.5988643 32,30.1022525 Z M21.3213509,22.3653459 C19.6497021,22.7020358 17.955621,22.9141636 16.2529169,23 C16.5033336,21.0255205 16.5734503,18.2526864 16.5734503,18.2526864 L12.0659497,18.2526864 C12.0659497,18.2526864 12.0283872,20.980188 12.2011747,22.9697784 C10.6815377,22.8657623 9.17009459,22.6638708 7.67614494,22.3653459 C6.77461835,17.8308082 6.77461835,13.1616364 7.67614494,8.62709872 C9.21775998,8.31399846 10.7790888,8.10867157 12.3489206,8.01259234 C12.1210414,9.96188717 12.0484205,12.5634654 12.0484205,12.5634654 L16.5709461,12.5634654 C16.5709461,12.5634654 16.6060044,9.97196105 16.4482419,8 C18.0862543,8.09163545 19.7156316,8.30120508 21.3238551,8.62709872 C22.2253816,13.1616364 22.2253816,17.8308082 21.3238551,22.3653459 L21.3213509,22.3653459 Z" id="Shape"></path>
                </g>
            </g>
        </g>
    </g>
</svg>